<svg xmlns="http://www.w3.org/2000/svg" width="256" height="256" viewBox="0 0 256 256">
  <rect width="256" height="256" rx="48" fill="#FAF6F2"/>
  <rect x="16" y="16" width="224" height="224" rx="36" fill="#F6F0E9"/>
  <g transform="translate(128,128)">
    <circle cx="0" cy="0" r="56" fill="none" stroke="#C9A962" stroke-width="3" opacity="0.35"/>
    <circle cx="0" cy="0" r="76" fill="none" stroke="#C9A962" stroke-width="1.5" opacity="0.18"/>
    <path d="M-28,-20 Q-28,-36 -14,-36 L14,-36 Q28,-36 28,-20 L28,-8 Q28,4 16,8 L8,10 Q28,14 28,30 L28,36 L12,36 L12,28 Q12,16 -2,16 L-12,16 L-12,36 L-28,36 Z M-12,-22 L-12,2 L10,2 Q12,2 12,-6 L12,-14 Q12,-22 10,-22 Z" fill="#0F0F0F"/>
    <rect x="-28" y="42" width="56" height="3" rx="1.5" fill="#C9A962"/>
  </g>
</svg>
